<?xml version="1.0" standalone="no"?>
<!DOCTYPE svg PUBLIC "-//W3C//DTD SVG 20010904//EN"
 "http://www.w3.org/TR/2001/REC-SVG-20010904/DTD/svg10.dtd">
<svg version="1.0" xmlns="http://www.w3.org/2000/svg"
 width="512.000000pt" height="512.000000pt" viewBox="0 0 512.000000 512.000000"
 preserveAspectRatio="xMidYMid meet">

<g transform="translate(0.000000,512.000000) scale(0.100000,-0.100000)"
fill="#000000" stroke="none">
<path d="M2868 3873 l-528 -3 0 -30 0 -30 225 0 225 0 0 -1400 0 -1400 -225 0
-225 0 0 -29 0 -28 563 -8 c309 -5 628 -8 710 -7 659 9 1065 329 1060 837 0
90 -5 125 -27 191 -89 276 -358 474 -730 539 -49 8 -91 17 -93 18 -2 2 29 10
69 17 243 43 461 180 568 356 131 217 98 507 -81 699 -182 195 -473 290 -863
283 -66 -2 -358 -4 -648 -5z m847 -77 c190 -53 301 -170 352 -372 27 -107 24
-421 -5 -526 -51 -188 -142 -287 -307 -336 -36 -10 -121 -16 -302 -19 l-253
-5 0 635 0 636 33 4 c17 3 120 4 227 2 144 -2 211 -7 255 -19z m115 -1334 c82
-27 146 -68 207 -136 129 -141 179 -350 162 -681 -14 -279 -94 -458 -249 -557
-109 -70 -321 -105 -558 -94 -72 4 -146 9 -162 13 l-30 6 0 739 0 740 283 -4
c253 -5 289 -7 347 -26z"/>
<path d="M800 3840 l0 -30 230 0 230 0 0 -1257 c0 -755 -4 -1285 -10 -1325
-28 -191 -110 -277 -265 -278 -187 0 -239 111 -159 340 44 126 43 181 -4 239
-48 59 -86 76 -172 76 -89 0 -139 -16 -186 -58 -63 -54 -79 -98 -79 -212 0
-93 2 -105 32 -166 59 -119 172 -203 340 -251 67 -20 101 -23 233 -22 141 0
163 3 236 27 255 85 399 296 434 638 6 63 10 507 10 1175 l0 1074 225 0 225 0
0 30 0 30 -660 0 -660 0 0 -30z"/>
</g>
</svg>
